<?xml version="1.0" encoding="UTF-8" standalone="no"?>
<svg
   width="1200"
   height="1200"
   viewBox="0 0 4800 4800"
   version="1.1"
   id="svg153"
   sodipodi:docname="logo.svg"
   inkscape:version="1.1.1 (3bf5ae0d25, 2021-09-20)"
   inkscape:export-filename="C:\Users\adminphd\Desktop\logo_code.png"
   inkscape:export-xdpi="1200"
   inkscape:export-ydpi="1200"
   xmlns:inkscape="http://www.inkscape.org/namespaces/inkscape"
   xmlns:sodipodi="http://sodipodi.sourceforge.net/DTD/sodipodi-0.dtd"
   xmlns="http://www.w3.org/2000/svg"
   xmlns:svg="http://www.w3.org/2000/svg">
  <sodipodi:namedview
     id="namedview155"
     pagecolor="#ffffff"
     bordercolor="#666666"
     borderopacity="1.0"
     inkscape:pageshadow="2"
     inkscape:pageopacity="0.0"
     inkscape:pagecheckerboard="0"
     showgrid="false"
     inkscape:zoom="0.3535534"
     inkscape:cx="670.33721"
     inkscape:cy="277.18585"
     inkscape:window-width="1409"
     inkscape:window-height="1040"
     inkscape:window-x="290"
     inkscape:window-y="54"
     inkscape:window-maximized="0"
     inkscape:current-layer="svg153"
     width="1200px" />
  <defs
     id="defs5">
    <clipPath
       id="clip520">
      <rect
         x="0"
         y="0"
         width="1600"
         height="1600"
         id="rect2" />
    </clipPath>
    <clipPath
       clipPathUnits="userSpaceOnUse"
       id="clipPath14228">
      <rect
         style="fill:#9358a4;fill-opacity:1;stroke:none;stroke-width:4.73304;stroke-miterlimit:4;stroke-dasharray:4.73304, 4.73304;stroke-dashoffset:0;stroke-opacity:0.640449"
         id="rect14230"
         width="297.2699"
         height="1369.2471"
         x="910.55957"
         y="-1014.4754"
         transform="matrix(0.70715308,0.70706048,-0.82126604,0.57054544,0,0)" />
    </clipPath>
    <clipPath
       clipPathUnits="userSpaceOnUse"
       id="clipPath16880">
      <rect
         style="fill:#ffffff;fill-opacity:1;stroke:#000000;stroke-width:7.56464;stroke-miterlimit:4;stroke-dasharray:7.56464, 7.56464;stroke-dashoffset:0;stroke-opacity:0"
         id="rect16882"
         width="1371.8169"
         height="1529.356"
         x="132.09158"
         y="14.091578" />
    </clipPath>
    <clipPath
       id="clip522-8">
      <rect
         x="132"
         y="47"
         width="1421"
         height="1423"
         id="rect16-6" />
    </clipPath>
    <clipPath
       id="clipPath1178">
      <rect
         x="132"
         y="47"
         width="1421"
         height="1423"
         id="rect1176" />
    </clipPath>
    <clipPath
       clipPathUnits="userSpaceOnUse"
       id="clipPath16880-4">
      <rect
         style="fill:#ffffff;fill-opacity:1;stroke:#000000;stroke-width:7.56464;stroke-miterlimit:4;stroke-dasharray:7.56464, 7.56464;stroke-dashoffset:0;stroke-opacity:0"
         id="rect16882-8"
         width="1371.8169"
         height="1529.356"
         x="132.09158"
         y="14.091578" />
    </clipPath>
    <clipPath
       clipPathUnits="userSpaceOnUse"
       id="clipPath14228-7">
      <rect
         style="fill:#9358a4;fill-opacity:1;stroke:none;stroke-width:4.73304;stroke-miterlimit:4;stroke-dasharray:4.73304, 4.73304;stroke-dashoffset:0;stroke-opacity:0.640449"
         id="rect14230-4"
         width="297.2699"
         height="1369.2471"
         x="910.55957"
         y="-1014.4754"
         transform="matrix(0.70715308,0.70706048,-0.82126604,0.57054544,0,0)" />
    </clipPath>
    <clipPath
       id="clip662">
      <rect
         x="132"
         y="47"
         width="1421"
         height="1423"
         id="rect16-7" />
    </clipPath>
    <clipPath
       id="clipPath985">
      <rect
         x="132"
         y="47"
         width="1421"
         height="1423"
         id="rect983" />
    </clipPath>
    <clipPath
       id="clipPath989">
      <rect
         x="132"
         y="47"
         width="1421"
         height="1423"
         id="rect987" />
    </clipPath>
  </defs>
  <defs
     id="defs12">
    <clipPath
       id="clip521">
      <rect
         x="320"
         y="160"
         width="1121"
         height="1121"
         id="rect9" />
    </clipPath>
  </defs>
  <defs
     id="defs19">
    <clipPath
       id="clip522">
      <rect
         x="132"
         y="47"
         width="1421"
         height="1423"
         id="rect16" />
    </clipPath>
  </defs>
  <polyline
     clip-path="url(#clip662)"
     style="fill:none;stroke:#000000;stroke-width:27.66548629;stroke-linecap:butt;stroke-linejoin:round;stroke-opacity:1;stroke-miterlimit:4;stroke-dasharray:none"
     points="   -8007.6,1373.72 -8006.02,1373.67 -8003.97,1373.6 -8001.31,1373.52 -7997.84,1373.4 -7993.35,1373.25 -7987.51,1373.06 -7979.93,1372.79 -7970.11,1372.45 -7957.39,1372.01    -7940.91,1371.43 -7919.61,1370.67 -7892.12,1369.7 -7856.7,1368.42 -7811.2,1366.76 -7752.95,1364.61 -7678.7,1361.8 -7584.58,1358.14 -7466.11,1353.39 -7318.31,1347.19    -7135.88,1339.13 -6913.67,1328.62 -6647.21,1314.95 -6353.11,1298.31 -6086.51,1281.65 -5843.25,1264.98 -5619.95,1248.31 -5413.84,1231.67 -5222.63,1215.01 -5044.37,1198.35    -4877.44,1181.66 -4720.47,1165.03 -4572.28,1148.41 -4431.89,1131.8 -4298.41,1115.22 -4171.1,1098.67 -4049.3,1082.13 -3932.45,1065.62 -3820.05,1049.14 -3711.64,1032.69    -3606.85,1016.27 -3505.32,999.873 -3406.74,983.512 -3310.83,967.181 -3217.36,950.883 -3126.1,934.63 -3036.83,918.399 -2949.39,902.203 -2863.63,886.087 -2779.36,869.962    -2696.49,853.875 -2614.89,837.901 -2534.41,821.887 -2455,805.912 -2376.55,789.908 -2298.97,774.01 -2222.19,758.153 -2146.14,742.31 -2070.77,726.539 -1996,710.811    -1921.79,695.105 -1848.07,679.462 -1774.81,663.864 -1701.96,648.306 -1629.49,632.802 -1557.35,617.343 -1485.51,601.916 -1413.95,586.553 -1342.62,571.238 -1271.5,555.969    -1200.57,540.753 -1129.8,525.586 -1059.16,510.475 -988.627,495.409 -918.182,480.394 -847.803,465.43 -777.466,450.518 -707.153,435.658 -636.844,420.849 -566.519,406.095    -496.158,391.396 -425.742,376.745 -355.244,362.156 -284.65,347.624 -213.937,333.146 -143.085,318.732 -72.0647,304.378 -0.848181,290.088 70.6178,275.855 142.346,261.687    214.378,247.59 286.762,233.559 359.549,219.601 432.806,205.714 506.589,191.919 581.021,178.213 656.233,164.603 732.411,151.098 809.777,137.715 888.671,124.485    969.584,111.433 1053.43,98.6239 1141.9,86.2125 1239.3,74.4895 1295.46,69.3021 1327.89,67.3174 1346.08,66.5683 1366.22,66.2613 1379.79,66.5281 1392.25,67.1879    1404.78,68.5111 1415.51,70.6314 1424.03,73.3993 1430.21,77.044 1433.76,81.7759 1434.39,85.2597 1434.39,85.2598 1434.09,87.9025 1430.3,95.8158 1421.14,106.037       "
     id="polyline103"
     transform="matrix(3.1808586,0,0,3.1808586,-270.53151,393.21067)" />
  <polyline
     clip-path="url(#clip662)"
     style="fill:none;stroke:#000000;stroke-width:27.66548629;stroke-linecap:butt;stroke-linejoin:round;stroke-opacity:1;stroke-miterlimit:4;stroke-dasharray:110.66194517,69.16371573;stroke-dashoffset:0"
     stroke-dasharray="48, 30"
     points="   1421.14,106.037 1404.95,119.221 1382.44,134.493 1357.42,149.725 1330.76,164.932 1302.96,180.139 1274.39,195.347 1245.3,210.395 1215.86,225.631 1186.24,240.885    1156.54,256.14 1126.87,271.436 1097.3,286.757 1067.9,302.103 1038.75,317.478 1009.88,332.884 981.352,348.321 953.216,363.787 925.512,379.286 898.282,394.815    871.565,410.381 845.401,425.98 819.827,441.622 794.884,457.288 770.605,472.99 747.027,488.731 724.185,504.505 702.118,520.313 680.865,536.147 660.462,552.027    640.951,567.942 622.372,583.889 604.766,599.874 588.176,615.893 572.648,631.947 558.226,648.036 544.958,664.159 532.896,680.312 522.092,696.502 512.599,712.724    504.476,728.981 497.786,745.266 492.589,761.583 488.955,777.941 486.956,794.319 486.568,805.246    "
     id="polyline105"
     transform="matrix(3.1808586,0,0,3.1808586,-270.53151,393.21067)" />
  <polyline
     clip-path="url(#clip662)"
     style="fill:none;stroke:#000000;stroke-width:27.66548629;stroke-linecap:butt;stroke-linejoin:round;stroke-opacity:1;stroke-miterlimit:4;stroke-dasharray:none"
     points="   486.568,805.246 486.568,805.246 486.667,810.727 488.171,827.167 491.554,843.648 496.91,860.146 504.339,876.672 513.948,893.233 525.854,909.816 540.181,926.426    557.067,943.062 576.658,959.726 599.115,976.415 624.613,993.13 653.345,1009.87 685.521,1026.63 721.372,1043.42 761.154,1060.23 805.152,1077.05 853.681,1093.91    907.096,1110.78 965.79,1127.66 1030.2,1144.56 1100.84,1161.48 1178.27,1178.41 1263.12,1195.36 1356.15,1212.32 1458.19,1229.3 1570.23,1246.28 1693.4,1263.27    1829.04,1280.27 1978.69,1297.28 2144.22,1314.29 2327.84,1331.3 2532.21,1348.35 2760.52,1365.35 3016.8,1382.35 3305.96,1399.29 3634.17,1416.26 4009.38,1433.2    4441.81,1450.11 4944.92,1466.99 5536.9,1483.82 6242.78,1500.59 7097.89,1517.28 8154.25,1533.86 9491.06,1550.31 11235.2,1566.56 13602.8,1582.54 16992.6,1598.11    22221.9,1613.04 31216.4,1626.88    "
     id="polyline107"
     transform="matrix(3.1808586,0,0,3.1808586,-270.53151,393.21067)" />
  <polyline
     clip-path="url(#clip522-8)"
     style="fill:none;stroke:#000000;stroke-width:22.04852881;stroke-linecap:butt;stroke-linejoin:round;stroke-miterlimit:4;stroke-dasharray:22.04852881,22.04852881;stroke-dashoffset:0;stroke-opacity:1"
     points="   1334.29,1469.17 1334.29,47.2441    "
     id="polyline29"
     transform="matrix(3.265524,0,0,3.265524,-1956.3711,-45.857079)" />
  <circle
     style="fill:#369844;fill-opacity:1;stroke:none;stroke-width:20.9399;stroke-miterlimit:4;stroke-dasharray:20.9399, 20.9399;stroke-dashoffset:0;stroke-opacity:1"
     id="path2919"
     cx="2398.96"
     cy="811.93091"
     r="420" />
  <circle
     style="fill:#9358a4;fill-opacity:1;stroke:none;stroke-width:20.94;stroke-miterlimit:4;stroke-dasharray:20.94, 20.94;stroke-dashoffset:0;stroke-opacity:1"
     id="circle11128"
     cx="2398.96"
     cy="3800.6938"
     r="420" />
  <circle
     style="fill:#cb392e;fill-opacity:1;stroke:none;stroke-width:20.9401;stroke-miterlimit:4;stroke-dasharray:20.9401, 20.9401;stroke-dashoffset:0;stroke-opacity:1"
     id="ellipse3076"
     cx="2398.96"
     cy="1744.4773"
     r="420" />
</svg>
